<?xml version="1.0" standalone="no"?>
<!DOCTYPE svg PUBLIC "-//W3C//DTD SVG 20010904//EN"
 "http://www.w3.org/TR/2001/REC-SVG-20010904/DTD/svg10.dtd">
<svg version="1.0" xmlns="http://www.w3.org/2000/svg"
 width="330.000000pt" height="148.000000pt" viewBox="0 0 330.000000 148.000000"
 preserveAspectRatio="xMidYMid meet">

<g transform="translate(0.000000,148.000000) scale(0.100000,-0.100000)"
fill="#000000" stroke="none">
<path d="M0 1420 l0 -60 160 0 160 0 0 -50 0 -50 -110 0 -110 0 0 -575 0 -574
108 -3 107 -3 0 -53 0 -52 363 0 362 0 0 55 0 55 105 0 105 0 0 575 0 575
-105 0 -105 0 0 50 0 50 160 0 160 0 0 -680 0 -680 970 0 970 0 0 173 c-1 158
-2 170 -16 145 -17 -32 -62 -58 -99 -58 -87 0 -142 99 -100 179 14 28 68 61
100 61 31 0 85 -32 100 -59 12 -23 14 40 15 507 l0 532 -842 0 c-719 -1 -838
-3 -812 -14 17 -8 39 -24 48 -37 20 -29 21 -83 1 -99 -14 -11 -14 -15 2 -32 9
-10 17 -34 17 -53 0 -69 -86 -120 -163 -96 -40 11 -91 61 -91 87 0 20 83 19
100 -1 20 -25 55 -15 55 15 0 20 -6 26 -27 28 -24 3 -28 8 -28 37 0 29 4 34
28 37 19 2 27 9 27 23 0 25 -37 32 -55 10 -7 -9 -28 -15 -51 -15 -31 0 -39 4
-39 18 0 27 29 63 64 78 26 11 -83 13 -751 14 l-783 0 0 -60z m865 -344 c127
-59 180 -209 118 -334 -20 -41 -20 -42 -1 -59 32 -29 59 -91 65 -148 8 -73
-17 -141 -70 -193 -76 -74 -87 -76 -394 -80 l-273 -3 0 420 0 421 253 0 c243
0 254 -1 302 -24z m1255 14 c34 -18 44 -48 25 -77 -16 -24 -16 -27 -1 -35 21
-12 21 -62 0 -82 -11 -12 -35 -16 -85 -16 l-69 0 0 110 0 110 56 0 c30 0 64
-5 74 -10z m244 -11 c14 -11 26 -30 26 -43 0 -29 -26 -64 -51 -68 -19 -3 -17
-6 16 -45 32 -38 34 -43 16 -43 -11 0 -35 19 -57 45 -20 25 -45 45 -55 45 -16
0 -19 -8 -19 -45 0 -33 -4 -45 -15 -45 -12 0 -15 19 -15 110 l0 110 64 0 c49
0 69 -5 90 -21z m225 -76 c24 -54 45 -104 48 -110 10 -25 -28 -13 -39 12 -10
22 -17 25 -69 25 -52 0 -57 -2 -63 -25 -4 -16 -13 -25 -25 -25 -18 0 -16 9 20
91 52 119 57 129 73 129 7 0 32 -44 55 -97z m229 70 c24 -24 25 -28 9 -31 -10
-2 -24 3 -30 11 -29 35 -91 24 -85 -15 2 -18 13 -26 51 -35 61 -15 77 -28 77
-64 0 -48 -50 -79 -107 -64 -33 8 -63 33 -63 52 0 19 24 16 45 -7 22 -24 67
-26 86 -4 20 24 -1 46 -57 61 -73 18 -90 50 -53 97 29 37 89 37 127 -1z m102
-83 c0 -91 -3 -110 -15 -110 -12 0 -15 19 -15 110 0 91 3 110 15 110 12 0 15
-19 15 -110z m92 13 l3 -98 63 -3 c90 -4 76 -22 -18 -22 l-80 0 0 110 c0 90 3
110 15 110 11 0 15 -20 17 -97z m-877 -228 c29 -28 31 -42 10 -72 -13 -18 -13
-22 0 -33 20 -17 19 -59 -2 -82 -13 -14 -31 -18 -90 -18 l-73 0 0 115 0 115
65 0 c57 0 69 -3 90 -25z m252 -8 c19 -18 27 -39 30 -74 5 -45 2 -53 -26 -85
-49 -56 -118 -59 -170 -7 -50 49 -45 127 11 174 28 23 39 27 81 22 35 -3 56
-12 74 -30z m101 -70 l3 -96 61 -3 c38 -2 63 -8 66 -15 3 -10 -17 -13 -77 -13
l-81 0 0 116 c0 88 3 115 13 112 8 -3 13 -35 15 -101z m296 82 c27 -21 35 -49
13 -49 -7 0 -18 9 -25 21 -10 15 -21 19 -50 17 -32 -3 -37 -6 -37 -28 0 -22 8
-27 58 -43 66 -21 85 -48 65 -92 -30 -65 -168 -46 -168 24 0 18 18 12 44 -14
41 -41 96 -29 96 21 0 19 -8 24 -55 34 -82 17 -106 60 -60 105 30 31 82 33
119 4z m233 -94 c43 -97 49 -115 34 -115 -10 0 -23 11 -29 25 -10 23 -17 25
-70 25 -53 0 -60 -2 -70 -25 -6 -14 -18 -25 -27 -25 -8 0 -15 2 -15 4 0 4 90
207 97 219 13 22 33 -5 80 -108z m-52 -141 c8 -3 15 -1 15 5 0 6 4 11 10 11 5
0 7 -7 4 -15 -4 -10 -19 -14 -49 -13 -35 2 -42 5 -33 16 6 7 17 10 25 7 7 -3
20 -8 28 -11z m-178 -69 c25 -17 40 -42 29 -52 -3 -3 -15 6 -26 20 -27 34 -78
44 -118 23 -61 -32 -72 -108 -23 -157 41 -41 91 -40 133 1 31 31 45 33 35 5
-9 -22 -68 -55 -100 -55 -64 0 -117 54 -117 120 0 96 104 149 187 95z m-656 5
c21 -12 27 -68 9 -86 -8 -8 -6 -15 5 -24 22 -18 19 -64 -6 -86 -16 -15 -36
-19 -88 -19 l-66 0 -3 113 -3 112 66 0 c37 0 75 -5 86 -10z m220 -101 c27 -57
48 -107 48 -111 2 -20 -17 -4 -32 27 -16 34 -18 35 -77 35 -59 0 -61 -1 -77
-35 -14 -30 -33 -47 -33 -30 0 5 88 204 97 218 12 19 30 -6 74 -104z m109 6
l0 -105 71 0 c44 0 68 -4 64 -10 -3 -6 -40 -10 -81 -10 l-74 0 0 115 c0 70 4
115 10 115 6 0 10 -42 10 -105z m551 -9 c54 -119 53 -116 39 -116 -5 0 -16 16
-24 35 -15 34 -16 35 -75 35 -58 0 -60 -1 -81 -37 -43 -71 -31 -16 20 91 27
60 55 106 61 104 6 -2 33 -52 60 -112z"/>
<path d="M520 850 l0 -90 116 0 c114 0 116 0 145 29 38 38 40 91 4 126 -23 24
-30 25 -145 25 l-120 0 0 -90z"/>
<path d="M520 510 l0 -90 126 0 c125 0 126 0 155 29 38 38 40 91 4 126 -23 24
-29 25 -155 25 l-130 0 0 -90z"/>
<path d="M2020 1035 c0 -35 0 -35 45 -35 49 0 71 21 54 52 -7 13 -22 18 -54
18 -45 0 -45 0 -45 -35z"/>
<path d="M2020 940 l0 -40 43 0 c46 0 67 13 67 42 0 23 -30 38 -74 38 -35 0
-36 -1 -36 -40z"/>
<path d="M2240 1030 l0 -40 44 0 c27 0 51 6 60 16 36 35 10 64 -56 64 l-48 0
0 -40z"/>
<path d="M2508 1005 l-17 -45 39 0 c22 0 40 2 40 5 0 13 -33 85 -39 85 -4 0
-14 -20 -23 -45z"/>
<path d="M2010 734 l0 -35 51 3 c95 6 93 68 -2 68 l-49 0 0 -36z"/>
<path d="M2010 635 l0 -36 58 3 c51 3 57 5 60 27 5 31 -12 41 -70 41 l-48 0 0
-35z"/>
<path d="M2245 745 c-38 -37 -35 -95 7 -130 38 -32 81 -29 116 11 50 57 12
144 -63 144 -25 0 -44 -8 -60 -25z"/>
<path d="M2938 725 c-9 -16 -19 -40 -22 -52 -7 -21 -4 -23 33 -23 47 0 49 6
22 65 l-18 40 -15 -30z"/>
<path d="M2000 430 l0 -40 54 0 c59 0 80 14 74 52 -3 21 -9 23 -65 26 l-63 3
0 -41z"/>
<path d="M2000 325 l0 -45 54 0 c57 0 86 16 86 49 0 30 -22 41 -82 41 l-58 0
0 -45z"/>
<path d="M2262 405 c-12 -25 -22 -48 -22 -50 0 -3 23 -5 50 -5 28 0 50 2 50 5
0 10 -44 95 -50 95 -3 0 -16 -20 -28 -45z"/>
<path d="M2922 408 c-12 -28 -20 -53 -18 -55 2 -2 25 -3 50 -1 l46 3 -25 53
c-13 28 -25 52 -27 52 -2 0 -13 -24 -26 -52z"/>
<path d="M3138 464 c-86 -46 -50 -184 47 -184 76 0 124 98 77 156 -35 44 -78
54 -124 28z"/>
</g>
</svg>
