<?xml version="1.0" standalone="no"?>
<!DOCTYPE svg PUBLIC "-//W3C//DTD SVG 20010904//EN"
 "http://www.w3.org/TR/2001/REC-SVG-20010904/DTD/svg10.dtd">
<svg version="1.0" xmlns="http://www.w3.org/2000/svg"
 width="186.000000pt" height="186.000000pt" viewBox="0 0 186.000000 186.000000"
 preserveAspectRatio="xMidYMid meet">

<g transform="translate(0.000000,186.000000) scale(0.100000,-0.100000)"
fill="#000000" stroke="none">
<path d="M1424 1438 c-12 -5 -27 -21 -33 -34 -10 -22 -9 -24 19 -24 16 0 32 5
35 10 8 14 42 13 51 -2 8 -12 -24 -40 -37 -32 -5 3 -9 -7 -9 -21 0 -14 4 -24
9 -21 13 8 45 -20 37 -32 -9 -15 -43 -16 -51 -2 -8 13 -65 13 -65 0 0 -6 11
-22 25 -35 29 -29 88 -34 123 -9 24 16 31 71 11 91 -8 8 -8 13 0 17 6 4 11 20
11 36 0 53 -70 86 -126 58z"/>
<path d="M345 1358 c-3 -7 -4 -222 -3 -478 l3 -465 108 -3 107 -3 0 36 0 35
-75 0 -75 0 0 410 0 410 75 0 75 0 0 35 0 35 -105 0 c-75 0 -107 -4 -110 -12z"/>
<path d="M1080 1335 l0 -35 75 0 75 0 0 -410 0 -410 -76 0 -75 0 3 -32 3 -33
108 -3 107 -3 0 481 0 480 -110 0 -110 0 0 -35z"/>
<path d="M560 890 l0 -290 204 0 c194 0 204 1 236 23 47 31 71 67 77 115 8 57
-4 106 -32 140 -16 20 -21 32 -14 43 37 58 30 143 -18 200 -45 53 -73 59 -273
59 l-180 0 0 -290z m337 168 c31 -29 30 -71 -3 -97 -22 -17 -41 -21 -105 -21
l-79 0 0 70 0 70 82 0 c70 0 85 -3 105 -22z m14 -236 c15 -13 22 -30 22 -52 0
-55 -29 -70 -134 -70 l-89 0 0 70 0 70 89 0 c71 0 93 -4 112 -18z"/>
</g>
</svg>
